<svg width="18" height="19" viewBox="0 0 18 19" fill="none" xmlns="http://www.w3.org/2000/svg">
<g clip-path="url(#clip0_4:71)">
<path d="M9 1.92155C11.403 1.92155 11.688 1.93055 12.6368 1.97405C13.6613 2.02055 14.6115 2.22605 15.3428 2.9573C16.074 3.68855 16.2795 4.6388 16.326 5.6633C16.3695 6.61205 16.3785 6.89705 16.3785 9.30005C16.3785 11.703 16.3695 11.988 16.326 12.9368C16.2795 13.9613 16.074 14.9115 15.3428 15.6428C14.6115 16.374 13.6613 16.5795 12.6368 16.626C11.688 16.6695 11.403 16.6785 9 16.6785C6.597 16.6785 6.312 16.6695 5.36325 16.626C4.33875 16.5795 3.3885 16.374 2.65725 15.6428C1.926 14.9115 1.7205 13.9613 1.674 12.9368C1.6305 11.988 1.6215 11.703 1.6215 9.30005C1.6215 6.89705 1.6305 6.61205 1.674 5.6633C1.7205 4.6388 1.926 3.68855 2.65725 2.9573C3.3885 2.22605 4.33875 2.02055 5.36325 1.97405C6.312 1.93055 6.597 1.92155 9 1.92155ZM9 0.300049C6.55575 0.300049 6.249 0.310549 5.289 0.354049C3.8265 0.420799 2.54175 0.779299 1.5105 1.81055C0.47925 2.8418 0.12075 4.12655 0.054 5.58905C0.0105 6.54905 0 6.8558 0 9.30005C0 11.7443 0.0105 12.051 0.054 13.011C0.12075 14.4735 0.47925 15.7583 1.5105 16.7895C2.54175 17.8208 3.8265 18.1793 5.289 18.246C6.249 18.2895 6.55575 18.3 9 18.3C11.4443 18.3 11.751 18.2895 12.711 18.246C14.1735 18.1793 15.4583 17.8208 16.4895 16.7895C17.5208 15.7583 17.8792 14.4735 17.946 13.011C17.9895 12.051 18 11.7443 18 9.30005C18 6.8558 17.9895 6.54905 17.946 5.58905C17.8792 4.12655 17.5208 2.8418 16.4895 1.81055C15.4583 0.779299 14.1735 0.420799 12.711 0.354049C11.751 0.310549 11.4443 0.300049 9 0.300049Z" fill="white"/>
<path d="M8.99998 4.67859C6.44773 4.67859 4.37848 6.74784 4.37848 9.30009C4.37848 11.8523 6.44773 13.9216 8.99998 13.9216C11.5522 13.9216 13.6215 11.8523 13.6215 9.30009C13.6215 6.74784 11.5522 4.67859 8.99998 4.67859ZM8.99998 12.3001C7.34323 12.3001 5.99998 10.9568 5.99998 9.30009C5.99998 7.64334 7.34323 6.30009 8.99998 6.30009C10.6567 6.30009 12 7.64334 12 9.30009C12 10.9568 10.6567 12.3001 8.99998 12.3001Z" fill="white"/>
<path d="M13.8045 5.57553C14.401 5.57553 14.8845 5.09199 14.8845 4.49553C14.8845 3.89906 14.401 3.41553 13.8045 3.41553C13.208 3.41553 12.7245 3.89906 12.7245 4.49553C12.7245 5.09199 13.208 5.57553 13.8045 5.57553Z" fill="white"/>
</g>
<defs>
<clipPath id="clip0_4:71">
<rect width="18" height="19" fill="white"/>
</clipPath>
</defs>
</svg>
