<svg width="18" height="19" viewBox="0 0 18 19" fill="none" xmlns="http://www.w3.org/2000/svg">
<path d="M18 3.75002C17.325 4.05002 16.65 4.27502 15.9 4.35002C16.65 3.90002 17.25 3.15002 17.55 2.32502C16.8 2.77502 16.05 3.07502 15.225 3.22502C14.55 2.47502 13.575 2.02502 12.525 2.02502C10.5 2.02502 8.85 3.67502 8.85 5.70002C8.85 6.00002 8.85 6.30002 8.925 6.52502C5.775 6.37502 3.075 4.87502 1.275 2.62502C0.9 3.22502 0.75 3.82502 0.75 4.50002C0.75 5.77502 1.425 6.90002 2.4 7.57502C1.8 7.57502 1.2 7.42502 0.75 7.12502V7.20002C0.75 9.00002 2.025 10.5 3.675 10.8C3.375 10.875 3.075 10.95 2.7 10.95C2.475 10.95 2.25 10.95 2.025 10.875C2.475 12.375 3.825 13.425 5.475 13.425C4.2 14.4 2.625 15 0.9 15C0.6 15 0.3 15 0 14.925C1.65 15.975 3.6 16.575 5.625 16.575C12.45 16.575 16.125 10.95 16.125 6.07502C16.125 5.92502 16.125 5.77502 16.125 5.62502C16.875 5.10002 17.475 4.42502 18 3.75002Z" fill="white"/>
</svg>
